<svg xmlns="http://www.w3.org/2000/svg" width="157" height="35" viewBox="0 0 157 35" version="1.1"><path d="M 0.177 1.349 C 0.355 2.091, 2.750 9.760, 5.500 18.393 C 10.500 34.088, 10.500 34.088, 14.418 33.794 C 18.337 33.500, 18.337 33.500, 23.668 17.524 C 26.601 8.737, 29 1.173, 29 0.716 C 29 0.259, 27.102 0.023, 24.783 0.193 C 20.565 0.500, 20.565 0.500, 17.543 10.909 C 14.521 21.318, 14.521 21.318, 11.210 10.659 C 7.900 0, 7.900 0, 3.877 0 C 1.008 0, -0.054 0.387, 0.177 1.349 M 33.873 9.684 C 32.428 10.580, 30.515 12.550, 29.623 14.061 C 28.730 15.572, 28.002 18.764, 28.004 21.154 C 28.006 23.747, 28.822 26.835, 30.026 28.810 C 31.154 30.660, 33.667 32.799, 35.724 33.658 C 37.856 34.549, 40.797 34.970, 42.712 34.659 C 44.531 34.364, 47.397 33.141, 49.082 31.942 C 52.145 29.761, 52.145 29.761, 49.383 26.878 C 47.864 25.292, 46.369 24.379, 46.061 24.848 C 45.752 25.317, 44.517 26.218, 43.316 26.850 C 42.114 27.483, 40.848 28, 40.502 28 C 40.155 28, 42.598 24.663, 45.931 20.585 C 51.990 13.169, 51.990 13.169, 48.918 10.585 C 46.558 8.598, 44.765 8.006, 41.173 8.027 C 38.603 8.041, 35.318 8.787, 33.873 9.684 M 36.580 16.912 C 35.629 17.963, 34.996 19.932, 35.175 21.288 C 35.483 23.621, 35.675 23.519, 38.782 19.376 C 41.617 15.595, 41.808 15, 40.187 15 C 39.154 15, 37.532 15.860, 36.580 16.912" stroke="none" fill="#292931" fill-rule="evenodd"/><path d="M 132.389 2.430 C 132.057 3.293, 132.057 4.707, 132.389 5.570 C 132.750 6.512, 133.893 7.012, 135.246 6.820 C 136.898 6.585, 137.500 5.833, 137.500 4 C 137.500 2.167, 136.898 1.415, 135.246 1.180 C 133.893 0.988, 132.750 1.488, 132.389 2.430 M 151.389 2.430 C 151.057 3.293, 151.057 4.707, 151.389 5.570 C 151.750 6.512, 152.893 7.012, 154.246 6.820 C 155.898 6.585, 156.500 5.833, 156.500 4 C 156.500 2.167, 155.898 1.415, 154.246 1.180 C 152.893 0.988, 151.750 1.488, 151.389 2.430 M 60.288 9.511 C 58.923 10.467, 57.902 10.650, 57.507 10.011 C 57.163 9.455, 56.234 9, 55.441 9 C 54.263 9, 54 11.283, 54 21.500 C 54 34, 54 34, 57.500 34 C 61 34, 61 34, 61 26.155 C 61 19.575, 61.323 18.018, 63.004 16.496 C 64.660 14.998, 65.442 14.880, 67.504 15.820 C 69.881 16.903, 70 17.363, 70 25.479 C 70 34, 70 34, 73.500 34 C 77 34, 77 34, 77 24.965 C 77 18.256, 76.576 15.282, 75.352 13.414 C 74.445 12.030, 72.442 10.246, 70.901 9.449 C 69.360 8.652, 66.827 8, 65.272 8 C 63.717 8, 61.474 8.680, 60.288 9.511 M 137.873 9.684 C 136.428 10.580, 134.515 12.550, 133.623 14.061 C 132.730 15.572, 132.002 18.764, 132.004 21.154 C 132.006 23.747, 132.822 26.835, 134.026 28.810 C 135.154 30.660, 137.667 32.799, 139.724 33.658 C 141.856 34.549, 144.797 34.970, 146.712 34.659 C 148.531 34.364, 151.397 33.141, 153.082 31.942 C 156.145 29.761, 156.145 29.761, 153.383 26.878 C 151.864 25.292, 150.369 24.379, 150.061 24.848 C 149.752 25.317, 148.517 26.218, 147.316 26.850 C 146.114 27.483, 144.848 28, 144.502 28 C 144.155 28, 146.598 24.663, 149.931 20.585 C 155.990 13.169, 155.990 13.169, 152.918 10.585 C 150.558 8.598, 148.765 8.006, 145.173 8.027 C 142.603 8.041, 139.318 8.787, 137.873 9.684 M 81 17.435 C 81 22.074, 81.439 27.024, 81.975 28.434 C 82.511 29.845, 84.424 31.898, 86.225 32.996 C 88.026 34.094, 90.535 34.994, 91.800 34.996 C 93.064 34.998, 95.401 34.327, 96.993 33.504 C 98.818 32.560, 100.114 32.375, 100.502 33.004 C 100.841 33.552, 101.766 34, 102.559 34 C 103.737 34, 104 31.717, 104 21.500 C 104 9, 104 9, 100.500 9 C 97 9, 97 9, 97 16.277 C 97 21.246, 96.506 24.260, 95.443 25.777 C 94.587 27, 93.269 28, 92.515 28 C 91.760 28, 90.436 27.293, 89.571 26.429 C 88.407 25.264, 88 22.803, 88 16.929 C 88 9, 88 9, 84.500 9 C 81 9, 81 9, 81 17.435 M 110.302 10.501 C 109.123 11.327, 107.869 13.319, 107.516 14.928 C 107.114 16.757, 107.446 18.961, 108.400 20.806 C 109.239 22.429, 110.654 24.037, 111.545 24.379 C 112.435 24.720, 115.377 25, 118.082 25 C 120.787 25, 123 25.450, 123 26 C 123 26.583, 119.667 27, 115 27 C 107 27, 107 27, 107 30.500 C 107 34, 107 34, 116.326 34 C 124.972 34, 125.822 33.818, 127.992 31.508 C 129.429 29.978, 130.333 27.794, 130.333 25.850 C 130.333 23.643, 129.508 21.973, 127.611 20.342 C 125.477 18.506, 123.712 18, 119.444 18 C 116.450 18, 114 17.550, 114 17 C 114 16.422, 117.167 16, 121.500 16 C 129 16, 129 16, 129 12.500 C 129 9, 129 9, 120.723 9 C 114.980 9, 111.789 9.460, 110.302 10.501 M 140.580 16.912 C 139.629 17.963, 138.996 19.932, 139.175 21.288 C 139.483 23.621, 139.675 23.519, 142.782 19.376 C 145.617 15.595, 145.808 15, 144.187 15 C 143.154 15, 141.532 15.860, 140.580 16.912" stroke="none" fill="#fcfcfc" fill-rule="evenodd"/></svg>